PathFileType	4	(X/Y/Z)	23_coords_data.trc
DataRate	CameraRate	NumFrames	NumMarkers	Units	OrigDataRate	OrigDataStartFrame	OrigNumFrames
30.0	30.0	6	21	m	30.0	1	62
Frame#	Time	THUMB_TIP	THUMB_IP	THUMB_MCP	THUMB_CMC	INDEX_TIP	INDEX_DIP	INDEX_PIP	INDEX_MCP	MIDDLE_TIP	MIDDLE_DIP	MIDDLE_PIP	MIDDLE_MCP	RING_TIP	RING_DIP	RING_PIP	RING_MCP	PINKY_TIP	PINKY_DIP	PINKY_PIP	PINKY_MCP	WRIST
X1	Y1	Z1	X2	Y2	Z2	X3	Y3	Z3	X4	Y4	Z4	X5	Y5	Z5	X6	Y6	Z6	X7	Y7	Z7	X8	Y8	Z8	X9	Y9	Z9	X10	Y10	Z10	X11	Y11	Z11	X12	Y12	Z12	X13	Y13	Z13	X14	Y14	Z14	X15	Y15	Z15	X16	Y16	Z16	X17	Y17	Z17	X18	Y18	Z18	X19	Y19	Z19	X20	Y20	Z20	X21	Y21	Z21
0	-2.749317978547796e-18	0.5157411387664899	-0.003899121565680841	-0.1628026875267904	0.5065086891577149	-0.009673515088422846	-0.1425686010965621	0.49153533904285146	-0.02001455781254302	-0.11731624236087879	0.4784175203585084	-0.027193697720607535	-0.07528919412828061	0.5086616650124417	-0.01739535764711697	-0.09801995458763446	0.5241166826476582	-0.016175353533296133	-0.1073823271425699	0.5316748246636962	0.0005781677913812011	-0.124534698567215	0.49563527685045383	0.02150041245253087	-0.11575706985804668	0.5083660667865626	-0.015633749900718086	-0.08459447405022735	0.5241669098500136	-0.011502598566278999	-0.09242179460940692	0.5413509994164815	0.006401625561936242	-0.10770431318908624	0.5053335997599122	0.030230890175604985	-0.09625612595482391	0.5155887434192976	-0.006231225962872511	-0.07603094978344571	0.5313605010783882	-0.000709554605703322	-0.08279577097593371	0.5464702741445395	0.016555773253946637	-0.09247994315471109	0.5129778111995039	0.033502747467688554	-0.07745410457996982	0.5496804683208825	0.007647585338281027	-0.08603716294069896	0.5451684036531041	-0.004858798169179002	-0.07525608488708502	0.549496780731086	0.01561976419529787	-0.076900972225182	0.518160582578006	0.024389219623573433	-0.06134389062861001	0.46228308100186083	-0.023011742144276925	-0.051989820119430985
1	0.03333333333333339	0.5154650209934872	-0.003810003852390609	-0.16304612814970243	0.5063388140060356	-0.00953252139755334	-0.14274920377758393	0.49121111191812333	-0.019413836523769823	-0.117404929455446	0.47864593620305484	-0.026655923978893492	-0.07522011549897833	0.508277595627035	-0.01711942184422033	-0.09842392759461416	0.5239490353670553	-0.01607187355005668	-0.10744105679665561	0.5317652993781801	0.0006985844940149422	-0.12446068037946223	0.49572932090945143	0.02160622710287008	-0.11563374261250614	0.5080926963660711	-0.015430915512997356	-0.08565088863618775	0.5243962413077545	-0.01157719928385137	-0.09253153494011346	0.5409003374655907	0.006938190241294384	-0.10783528319813906	0.5047485573973602	0.030573180678218903	-0.09640794991583812	0.5149297353361182	-0.006015367112363501	-0.07662032533986562	0.531151990148482	-0.0011382138907650718	-0.08278894149389826	0.5461163731623625	0.016304923930868354	-0.09237977894165983	0.5126299093975875	0.033653853535112965	-0.07780609649289716	0.5483367561403707	0.008108484588879583	-0.08592019114950145	0.5441048017382581	-0.004476490577566383	-0.0751169989361613	0.5490575830844053	0.015860494907030565	-0.0767568151870115	0.5176530599721012	0.024945988791087892	-0.06152221049993423	0.46228308100186094	-0.023011742144276925	-0.051989820119430985
2	0.06666666666666676	0.5152462601942887	-0.0037947115620634575	-0.16323081504726766	0.5062078261179462	-0.00946529329587531	-0.14288010959886188	0.4909771102055257	-0.018982895827320934	-0.11745845475798722	0.47881550426753594	-0.026250935427079125	-0.07515998030103566	0.5079988578254416	-0.016932174436293246	-0.09872544984007381	0.5238291995826702	-0.016012367087270718	-0.10747497750104107	0.5318651596961169	0.0007662601955925608	-0.12438387588496447	0.49583362537581216	0.021671445387446142	-0.1155330080959277	0.5079073243021179	-0.015266452204072745	-0.0865977004136308	0.5246075998577522	-0.01166503171275457	-0.09260857113346821	0.540581332573374	0.007311826078270411	-0.10790982211203481	0.5043342513580523	0.030814101931474047	-0.0965106969662265	0.5144676793817882	-0.005838033384102936	-0.07708257428926779	0.5310162342630406	-0.0014878945558505219	-0.08275898367523604	0.5458706191364043	0.016088644396309304	-0.09227699331471406	0.512395663433824	0.03374797509145311	-0.07805390595261708	0.5468077819462996	0.008563755302944065	-0.08583921525217775	0.5433135598521168	-0.004209270648611874	-0.07499300762013417	0.5487383976992956	0.016007215263643793	-0.0766291160185556	0.5172868687642296	0.025341412918551853	-0.06164387218384226	0.4622830810018609	-0.023011742144276925	-0.051989820119430985
3	0.10000000000000014	0.5150742005582939	-0.003841166446860056	-0.16337560880133473	0.5061063996916773	-0.009460667057564875	-0.1429795366181177	0.4908163954054047	-0.01870065072322946	-0.1174911378691963	0.47893561844052607	-0.02596443322872366	-0.07511219731585439	0.5078125361683283	-0.016823317403571236	-0.09893001945262392	0.5237535897436155	-0.015991192821123712	-0.10748515706631001	0.5319720404233561	0.000788404206855331	-0.12430514591896136	0.4959455502056765	0.021701561366091138	-0.1154525782559308	0.507799245907758	-0.015155219033396339	-0.08736319925004721	0.5247837539595419	-0.01175787855350452	-0.09265324309698975	0.5403791315252278	0.007544501715049279	-0.1079376097685878	0.5040703802111024	0.03096803739496956	-0.0965727307432529	0.5141663769238543	-0.005707889262901222	-0.07741800809097643	0.5309406288386538	-0.0017614909469119144	-0.08271427215448401	0.5457201648388126	0.015906076549973558	-0.0921801241162995	0.5122586176473227	0.03379481552071062	-0.07821449804409852	0.5418702491705859	0.00930547652815561	-0.08555056969761099	0.5427611324383883	-0.004050102239164688	-0.07488122844366973	0.5485292553642942	0.01607127125747898	-0.07651558015618665	0.5170470608317772	0.025598231068756583	-0.06171720473281428	0.46228308100186094	-0.023011742144276925	-0.051989820119430985
4	0.13333333333333353	0.5149401479851903	-0.003938402030728261	-0.1634930322427669	0.5060276596182933	-0.009508512552481863	-0.14305920196341448	0.4907151011762628	-0.018546358230600246	-0.11751193401833038	0.4790144403083844	-0.025781120286813564	-0.07507795290360486	0.5077056187734525	-0.016781518182721666	-0.09904731776260478	0.5237176874147229	-0.01600278751319051	-0.10747389692449327	0.5320835378565587	0.0007720903138830337	-0.12422578796018224	0.49606244848508746	0.021701763416535846	-0.11539029146544155	0.507750584994866	-0.015108233541362148	-0.08789948706497475	0.5249162390196899	-0.01185116654444518	-0.09266727863735358	0.5402775999551914	0.007657049066108312	-0.10792728073110847	0.5039357991027975	0.031048238413206142	-0.09660148306678651	0.513992764197593	-0.005626719350386611	-0.07763470089033153	0.530914149442147	-0.0019653146502705	-0.08266071690974097	0.5456517726404573	0.015754575863067388	-0.09209405786933444	0.512203351128832	0.033802521745014635	-0.07830291644366039	0.5325074084193542	-0.014090439489481743	-0.06514630545847644	0.5424134955514102	-0.003987948778429007	-0.07478005442578972	0.5484172798597835	0.01606433073209712	-0.0764148875702626	0.5169171497381557	0.025737601703145097	-0.06175019930077641	0.4622830810018609	-0.023011742144276925	-0.051989820119430985
5	0.1666666666666669	0.5148364863690755	-0.004076259081825961	-0.16359125742493996	0.5059662020945359	-0.009599412822159925	-0.1431263403801657	0.4906613350270936	-0.01849956175588685	-0.1175261764548039	0.4790591478671528	-0.0256851412960023	-0.07505681455968727	0.5076651097056339	-0.016794700772758908	-0.0990901344885905	0.5237161961493911	-0.016041588717707	-0.10744450138306971	0.5321972033002748	0.0007242950490304878	-0.12414742005696944	0.4961816474722631	0.021677032894870107	-0.11534409062073381	0.5077421604758667	-0.015127203934266253	-0.08819294093885788	0.5250035343028838	-0.011942281040266844	-0.09265402149890667	0.5402597524084213	0.007669486566013628	-0.10788674714054836	0.5039088163826151	0.0310671584276061	-0.09660373679290679	0.5139186678687653	-0.005591488891056984	-0.07774653178994462	0.5309270004088734	-0.002108030086351964	-0.082602676244244	0.5456518271667156	0.01563039993460169	-0.09202114514015647	0.5122151792773364	0.033778224697392334	-0.0783329068203168	0.5347424523617914	-0.015415111358232259	-0.06435730715507582	0.5422368036697974	-0.00400917252457933	-0.07468877645015448	0.5483876596272699	0.01599825419754286	-0.0763264168103498	0.5168796369454389	0.025779531108636178	-0.06175059506096825	0.46228308100186094	-0.023011742144276925	-0.051989820119430985
